<?xml version="1.0" encoding="UTF-8"?>
<svg id="_图层_1" data-name="图层 1" xmlns="http://www.w3.org/2000/svg" xmlns:xlink="http://www.w3.org/1999/xlink" viewBox="0 0 190.56 301.26">
  <defs>
    <style>
      .cls-1 {
        fill: #000;
      }

      .cls-1, .cls-2, .cls-3 {
        stroke-width: 0px;
      }

      .cls-4 {
        fill: #fff;
      }

      .cls-4, .cls-5 {
        stroke: #000;
        stroke-miterlimit: 10;
      }

      .cls-5 {
        fill: none;
      }

      .cls-2 {
        fill: url(#_未命名的渐变_33-2);
      }

      .cls-3 {
        fill: url(#_未命名的渐变_33);
      }
    </style>
    <radialGradient id="_未命名的渐变_33" data-name="未命名的渐变 33" cx="20.26" cy="166.01" fx="20.26" fy="166.01" r="117.15" gradientTransform="translate(5.03 92.1) scale(.96 .48)" gradientUnits="userSpaceOnUse">
      <stop offset="0" stop-color="#4d4d4d"/>
      <stop offset=".5" stop-color="gray"/>
      <stop offset="1" stop-color="#4d4d4d"/>
    </radialGradient>
    <radialGradient id="_未命名的渐变_33-2" data-name="未命名的渐变 33" cx="-79.89" cy="-233.15" fx="-79.89" fy="-233.15" r="316.23" gradientTransform="translate(137.84 259.95) rotate(-180) scale(.35 .18)" xlink:href="#_未命名的渐变_33"/>
  </defs>
  <circle class="cls-4" cx="95.28" cy="75.12" r="42.52"/>
  <line class="cls-5" x1="95.28" y1="22.68" x2="95.28"/>
  <line class="cls-5" x1="58.2" y1="38.04" x2="42.16" y2="22"/>
  <line class="cls-5" x1="42.84" y1="75.12" x2="20.16" y2="75.12"/>
  <line class="cls-5" x1="58.2" y1="112.2" x2="42.16" y2="128.23"/>
  <line class="cls-5" x1="95.28" y1="127.56" x2="95.28" y2="150.24"/>
  <line class="cls-5" x1="132.36" y1="112.2" x2="148.39" y2="128.23"/>
  <line class="cls-5" x1="147.72" y1="75.12" x2="170.4" y2="75.12"/>
  <line class="cls-5" x1="132.36" y1="38.04" x2="148.39" y2="22"/>
  <path class="cls-1" d="M102.96,83.23c-1.44-2.64-4.54-4.36-9.3-5.16-2.72-.48-5.22-1.19-7.5-2.13-2.28-.94-3.68-1.71-4.2-2.31-.52-.6-.78-1.22-.78-1.86,0-2.92.7-5.55,2.1-7.89s4.22-4.16,8.46-5.46c4.24-1.3,8.84-1.95,13.8-1.95,2.08,0,3.73.15,4.95.45s2.04.62,2.46.96c.42.34.63.83.63,1.47,0,1.2-.17,2.21-.51,3.03-.34.82-.74,1.37-1.2,1.65-.46.28-1.33.66-2.61,1.14-1.2.4-2.09.74-2.67,1.02-.58.28-1.53.84-2.85,1.68-.56.36-.96.58-1.2.66-.2,0-.3-.08-.3-.24,0-.36.32-.85.96-1.47.64-.62,1.52-1.23,2.64-1.83,1.08-.56,1.62-.94,1.62-1.14s-.74-.3-2.22-.3c-5.32,0-9.9.7-13.74,2.1-3.84,1.4-5.76,2.94-5.76,4.62,0,.32.11.63.33.93.22.3.47.49.75.57l6.72,1.98c2.24.64,4.26,1.38,6.06,2.22,1.8.84,3.22,1.68,4.26,2.52,1.04.84,1.78,1.67,2.22,2.49.44.82.66,1.69.66,2.61,0,1.72-.69,3.54-2.07,5.46s-4.1,3.41-8.16,4.47c-4.06,1.06-8.23,1.59-12.51,1.59-3.52,0-6.27-.34-8.25-1.02-1.98-.68-2.97-1.64-2.97-2.88s.57-2.46,1.71-3.78c1.14-1.32,2.47-1.98,3.99-1.98,1,0,1.5.1,1.5.3,0,.08-.24.2-.72.36-.68.28-1.12.47-1.32.57-.2.1-.3.25-.3.45,0,.4,1.74.6,5.22.6,4.52,0,7.86-.14,10.02-.42,2.16-.28,4.05-.76,5.67-1.44,1.62-.68,3.09-1.56,4.41-2.64Z"/>
  <polygon class="cls-3" points="95.28 171.49 24.41 171.49 95.28 206.92 166.14 171.49 95.28 171.49"/>
  <polygon class="cls-2" points="95.28 301.26 166.14 301.26 95.28 265.83 24.41 301.26 95.28 301.26"/>
  <g>
    <path class="cls-1" d="M2.53,250.73l3-3.44c2.84,2.94,6.77,4.88,10.86,4.88,5.17,0,8.23-2.57,8.23-6.4,0-4.02-2.85-5.3-6.57-6.93l-5.66-2.5c-3.67-1.57-7.97-4.35-7.97-10.14s5.24-10.45,12.4-10.45c4.67,0,8.83,2.02,11.59,4.88l-2.66,3.22c-2.41-2.28-5.3-3.69-8.94-3.69-4.42,0-7.34,2.23-7.34,5.75,0,3.79,3.43,5.21,6.52,6.52l5.61,2.43c4.56,1.96,8.11,4.67,8.11,10.53,0,6.22-5.14,11.19-13.42,11.19-5.53,0-10.33-2.25-13.77-5.84Z"/>
    <path class="cls-1" d="M61.26,239.59v-23.12h5.01v23.26c0,9.46,4,12.44,9.14,12.44s9.34-2.97,9.34-12.44v-23.26h4.8v23.12c0,12.64-6.1,16.98-14.14,16.98s-14.15-4.34-14.15-16.98Z"/>
    <path class="cls-1" d="M124.12,216.48h5.01v39.38h-5.01v-39.38Z"/>
    <path class="cls-1" d="M161.04,250.73l3-3.44c2.84,2.94,6.77,4.88,10.86,4.88,5.17,0,8.23-2.57,8.23-6.4,0-4.02-2.85-5.3-6.57-6.93l-5.66-2.5c-3.67-1.57-7.97-4.35-7.97-10.14s5.24-10.45,12.4-10.45c4.67,0,8.83,2.02,11.59,4.88l-2.66,3.22c-2.41-2.28-5.3-3.69-8.94-3.69-4.42,0-7.34,2.23-7.34,5.75,0,3.79,3.43,5.21,6.52,6.52l5.61,2.43c4.56,1.96,8.11,4.67,8.11,10.53,0,6.22-5.14,11.19-13.42,11.19-5.53,0-10.33-2.25-13.77-5.84Z"/>
  </g>
</svg>